<svg width="268" height="80" viewBox="0 0 268 80" fill="none" xmlns="http://www.w3.org/2000/svg">
<circle cx="40" cy="40" r="39.5" stroke="white"/>
<circle cx="40" cy="40" r="32" fill="#8D86C9"/>
<path d="M48 40L32 50L32 30L48 40Z" fill="white"/>
<path d="M120.53 21.4V34H118.46V23.38H113.33V34H111.26V21.4H120.53ZM127.177 34.234C125.857 34.234 124.735 33.778 123.811 32.866C122.887 31.954 122.425 30.832 122.425 29.5C122.425 28.168 122.887 27.046 123.811 26.134C124.735 25.222 125.857 24.766 127.177 24.766C128.509 24.766 129.631 25.222 130.543 26.134C131.467 27.046 131.929 28.168 131.929 29.5C131.929 30.832 131.467 31.954 130.543 32.866C129.631 33.778 128.509 34.234 127.177 34.234ZM125.179 31.534C125.719 32.074 126.385 32.344 127.177 32.344C127.969 32.344 128.635 32.074 129.175 31.534C129.715 30.994 129.985 30.316 129.985 29.5C129.985 28.684 129.715 28.006 129.175 27.466C128.635 26.926 127.969 26.656 127.177 26.656C126.385 26.656 125.719 26.926 125.179 27.466C124.639 28.006 124.369 28.684 124.369 29.5C124.369 30.316 124.639 30.994 125.179 31.534ZM137.935 34.234C136.579 34.234 135.445 33.778 134.533 32.866C133.633 31.954 133.183 30.832 133.183 29.5C133.183 28.156 133.633 27.034 134.533 26.134C135.445 25.222 136.579 24.766 137.935 24.766C138.811 24.766 139.609 24.976 140.329 25.396C141.049 25.816 141.589 26.38 141.949 27.088L140.275 28.06C140.071 27.628 139.759 27.292 139.339 27.052C138.931 26.8 138.457 26.674 137.917 26.674C137.125 26.674 136.459 26.944 135.919 27.484C135.391 28.024 135.127 28.696 135.127 29.5C135.127 30.304 135.391 30.976 135.919 31.516C136.459 32.056 137.125 32.326 137.917 32.326C138.445 32.326 138.919 32.2 139.339 31.948C139.771 31.696 140.095 31.36 140.311 30.94L141.985 31.894C141.601 32.614 141.049 33.184 140.329 33.604C139.609 34.024 138.811 34.234 137.935 34.234ZM152.623 25V34H150.733V28.078L148.141 32.2H147.907L145.333 28.096V34H143.443V25H145.423L148.033 29.158L150.643 25H152.623ZM159.116 34.234C157.796 34.234 156.674 33.778 155.75 32.866C154.826 31.954 154.364 30.832 154.364 29.5C154.364 28.168 154.826 27.046 155.75 26.134C156.674 25.222 157.796 24.766 159.116 24.766C160.448 24.766 161.57 25.222 162.482 26.134C163.406 27.046 163.868 28.168 163.868 29.5C163.868 30.832 163.406 31.954 162.482 32.866C161.57 33.778 160.448 34.234 159.116 34.234ZM157.118 31.534C157.658 32.074 158.324 32.344 159.116 32.344C159.908 32.344 160.574 32.074 161.114 31.534C161.654 30.994 161.924 30.316 161.924 29.5C161.924 28.684 161.654 28.006 161.114 27.466C160.574 26.926 159.908 26.656 159.116 26.656C158.324 26.656 157.658 26.926 157.118 27.466C156.578 28.006 156.308 28.684 156.308 29.5C156.308 30.316 156.578 30.994 157.118 31.534ZM172.151 25V26.872H169.217V34H167.273V26.872H164.321V25H172.151ZM178.56 24.766C179.796 24.766 180.852 25.228 181.728 26.152C182.604 27.064 183.042 28.18 183.042 29.5C183.042 30.832 182.604 31.954 181.728 32.866C180.852 33.778 179.796 34.234 178.56 34.234C177.192 34.234 176.142 33.73 175.41 32.722V37.6H173.466V25H175.41V26.296C176.142 25.276 177.192 24.766 178.56 24.766ZM176.22 31.57C176.76 32.11 177.438 32.38 178.254 32.38C179.07 32.38 179.748 32.11 180.288 31.57C180.828 31.018 181.098 30.328 181.098 29.5C181.098 28.672 180.828 27.988 180.288 27.448C179.748 26.896 179.07 26.62 178.254 26.62C177.438 26.62 176.76 26.896 176.22 27.448C175.68 27.988 175.41 28.672 175.41 29.5C175.41 30.328 175.68 31.018 176.22 31.57ZM191.32 25H192.814V34H190.906V28.276L186.298 34H184.804V25H186.712V30.706L191.32 25ZM201.946 25V26.872H199.012V34H197.068V26.872H194.116V25H201.946ZM204.439 30.328C204.583 31.012 204.913 31.54 205.429 31.912C205.945 32.272 206.575 32.452 207.319 32.452C208.351 32.452 209.125 32.08 209.641 31.336L211.243 32.272C210.355 33.58 209.041 34.234 207.301 34.234C205.837 34.234 204.655 33.79 203.755 32.902C202.855 32.002 202.405 30.868 202.405 29.5C202.405 28.156 202.849 27.034 203.737 26.134C204.625 25.222 205.765 24.766 207.157 24.766C208.477 24.766 209.557 25.228 210.397 26.152C211.249 27.076 211.675 28.198 211.675 29.518C211.675 29.722 211.651 29.992 211.603 30.328H204.439ZM204.421 28.744H209.713C209.581 28.012 209.275 27.46 208.795 27.088C208.327 26.716 207.775 26.53 207.139 26.53C206.419 26.53 205.819 26.728 205.339 27.124C204.859 27.52 204.553 28.06 204.421 28.744ZM224.114 29.374C225.002 29.782 225.446 30.472 225.446 31.444C225.446 32.2 225.188 32.818 224.672 33.298C224.168 33.766 223.442 34 222.494 34H217.886V25H222.134C223.058 25 223.772 25.234 224.276 25.702C224.792 26.158 225.05 26.752 225.05 27.484C225.05 28.336 224.738 28.966 224.114 29.374ZM221.99 26.656H219.74V28.654H221.99C222.782 28.654 223.178 28.318 223.178 27.646C223.178 26.986 222.782 26.656 221.99 26.656ZM222.314 32.308C223.13 32.308 223.538 31.954 223.538 31.246C223.538 30.934 223.43 30.694 223.214 30.526C222.998 30.346 222.698 30.256 222.314 30.256H219.74V32.308H222.314ZM233.543 25H235.037V34H233.129V28.276L228.521 34H227.027V25H228.935V30.706L233.543 25ZM245.212 32.164H246.418V36.412H244.51V34H238.336V36.412H236.428V32.164H237.526C238.078 31.384 238.354 30.298 238.354 28.906V25H245.212V32.164ZM239.668 32.164H243.304V26.782H240.262V28.906C240.262 30.19 240.064 31.276 239.668 32.164ZM249.176 30.328C249.32 31.012 249.65 31.54 250.166 31.912C250.682 32.272 251.312 32.452 252.056 32.452C253.088 32.452 253.862 32.08 254.378 31.336L255.98 32.272C255.092 33.58 253.778 34.234 252.038 34.234C250.574 34.234 249.392 33.79 248.492 32.902C247.592 32.002 247.142 30.868 247.142 29.5C247.142 28.156 247.586 27.034 248.474 26.134C249.362 25.222 250.502 24.766 251.894 24.766C253.214 24.766 254.294 25.228 255.134 26.152C255.986 27.076 256.412 28.198 256.412 29.518C256.412 29.722 256.388 29.992 256.34 30.328H249.176ZM249.158 28.744H254.45C254.318 28.012 254.012 27.46 253.532 27.088C253.064 26.716 252.512 26.53 251.876 26.53C251.156 26.53 250.556 26.728 250.076 27.124C249.596 27.52 249.29 28.06 249.158 28.744ZM262.318 34.234C260.998 34.234 259.876 33.778 258.952 32.866C258.028 31.954 257.566 30.832 257.566 29.5C257.566 28.168 258.028 27.046 258.952 26.134C259.876 25.222 260.998 24.766 262.318 24.766C263.65 24.766 264.772 25.222 265.684 26.134C266.608 27.046 267.07 28.168 267.07 29.5C267.07 30.832 266.608 31.954 265.684 32.866C264.772 33.778 263.65 34.234 262.318 34.234ZM260.32 31.534C260.86 32.074 261.526 32.344 262.318 32.344C263.11 32.344 263.776 32.074 264.316 31.534C264.856 30.994 265.126 30.316 265.126 29.5C265.126 28.684 264.856 28.006 264.316 27.466C263.776 26.926 263.11 26.656 262.318 26.656C261.526 26.656 260.86 26.926 260.32 27.466C259.78 28.006 259.51 28.684 259.51 29.5C259.51 30.316 259.78 30.994 260.32 31.534ZM115.382 59.234C114.062 59.234 112.94 58.778 112.016 57.866C111.092 56.954 110.63 55.832 110.63 54.5C110.63 53.168 111.092 52.046 112.016 51.134C112.94 50.222 114.062 49.766 115.382 49.766C116.714 49.766 117.836 50.222 118.748 51.134C119.672 52.046 120.134 53.168 120.134 54.5C120.134 55.832 119.672 56.954 118.748 57.866C117.836 58.778 116.714 59.234 115.382 59.234ZM113.384 56.534C113.924 57.074 114.59 57.344 115.382 57.344C116.174 57.344 116.84 57.074 117.38 56.534C117.92 55.994 118.19 55.316 118.19 54.5C118.19 53.684 117.92 53.006 117.38 52.466C116.84 51.926 116.174 51.656 115.382 51.656C114.59 51.656 113.924 51.926 113.384 52.466C112.844 53.006 112.574 53.684 112.574 54.5C112.574 55.316 112.844 55.994 113.384 56.534ZM132.458 50H134.402V59H132.458V55.418H128.336V59H126.392V50H128.336V53.582H132.458V50ZM143.785 50H145.729V59H143.785V57.704C143.053 58.724 142.003 59.234 140.635 59.234C139.399 59.234 138.343 58.778 137.467 57.866C136.591 56.942 136.153 55.82 136.153 54.5C136.153 53.168 136.591 52.046 137.467 51.134C138.343 50.222 139.399 49.766 140.635 49.766C142.003 49.766 143.053 50.27 143.785 51.278V50ZM138.907 56.57C139.447 57.11 140.125 57.38 140.941 57.38C141.757 57.38 142.435 57.11 142.975 56.57C143.515 56.018 143.785 55.328 143.785 54.5C143.785 53.672 143.515 52.988 142.975 52.448C142.435 51.896 141.757 51.62 140.941 51.62C140.125 51.62 139.447 51.896 138.907 52.448C138.367 52.988 138.097 53.672 138.097 54.5C138.097 55.328 138.367 56.018 138.907 56.57ZM158.651 50H160.595V59H147.995V50H149.939V57.164H153.323V50H155.267V57.164H158.651V50ZM164.379 55.328C164.523 56.012 164.853 56.54 165.369 56.912C165.885 57.272 166.515 57.452 167.259 57.452C168.291 57.452 169.065 57.08 169.581 56.336L171.183 57.272C170.295 58.58 168.981 59.234 167.241 59.234C165.777 59.234 164.595 58.79 163.695 57.902C162.795 57.002 162.345 55.868 162.345 54.5C162.345 53.156 162.789 52.034 163.677 51.134C164.565 50.222 165.705 49.766 167.097 49.766C168.417 49.766 169.497 50.228 170.337 51.152C171.189 52.076 171.615 53.198 171.615 54.518C171.615 54.722 171.591 54.992 171.543 55.328H164.379ZM164.361 53.744H169.653C169.521 53.012 169.215 52.46 168.735 52.088C168.267 51.716 167.715 51.53 167.079 51.53C166.359 51.53 165.759 51.728 165.279 52.124C164.799 52.52 164.493 53.06 164.361 53.744ZM182.505 50V59H180.615V53.078L178.023 57.2H177.789L175.215 53.096V59H173.325V50H175.305L177.915 54.158L180.525 50H182.505ZM197.207 59H194.885L191.195 54.842V59H189.251V50H191.195V53.978L194.687 50H197.063L193.103 54.41L197.207 59ZM206.111 50V59H204.167V51.872H201.161V55.22C201.161 56.648 200.849 57.662 200.225 58.262C199.601 58.862 198.713 59.108 197.561 59V57.182C198.113 57.278 198.527 57.164 198.803 56.84C199.079 56.516 199.217 55.946 199.217 55.13V50H206.111ZM214.442 50H216.512L213.056 59.288C212.636 60.428 212.048 61.28 211.292 61.844C210.536 62.408 209.66 62.66 208.664 62.6V60.782C209.276 60.818 209.768 60.692 210.14 60.404C210.524 60.128 210.83 59.678 211.058 59.054L211.112 58.928L207.332 50H209.402L212.138 56.552L214.442 50ZM221.552 59.234C220.172 59.234 219.044 58.79 218.168 57.902C217.304 57.002 216.872 55.856 216.872 54.464C216.872 52.94 217.1 51.764 217.556 50.936C218.012 50.096 218.936 49.334 220.328 48.65C220.556 48.542 220.892 48.386 221.336 48.182C221.792 47.978 222.104 47.834 222.272 47.75C222.44 47.654 222.65 47.522 222.902 47.354C223.154 47.174 223.34 46.988 223.46 46.796C223.58 46.592 223.676 46.352 223.748 46.076L225.332 46.994C225.284 47.258 225.206 47.504 225.098 47.732C224.99 47.948 224.834 48.152 224.63 48.344C224.426 48.536 224.246 48.692 224.09 48.812C223.946 48.932 223.7 49.076 223.352 49.244C223.004 49.412 222.746 49.532 222.578 49.604C222.422 49.676 222.122 49.802 221.678 49.982C220.886 50.294 220.304 50.618 219.932 50.954C219.572 51.278 219.32 51.686 219.176 52.178C219.896 51.362 220.874 50.954 222.11 50.954C223.166 50.954 224.084 51.332 224.864 52.088C225.656 52.844 226.052 53.822 226.052 55.022C226.052 56.246 225.632 57.254 224.792 58.046C223.964 58.838 222.884 59.234 221.552 59.234ZM221.534 57.416C222.29 57.416 222.908 57.194 223.388 56.75C223.868 56.294 224.108 55.718 224.108 55.022C224.108 54.314 223.868 53.732 223.388 53.276C222.92 52.82 222.308 52.592 221.552 52.592C220.88 52.592 220.274 52.808 219.734 53.24C219.194 53.66 218.924 54.224 218.924 54.932C218.924 55.652 219.176 56.246 219.68 56.714C220.184 57.182 220.802 57.416 221.534 57.416ZM229.119 55.328C229.263 56.012 229.593 56.54 230.109 56.912C230.625 57.272 231.255 57.452 231.999 57.452C233.031 57.452 233.805 57.08 234.321 56.336L235.923 57.272C235.035 58.58 233.721 59.234 231.981 59.234C230.517 59.234 229.335 58.79 228.435 57.902C227.535 57.002 227.085 55.868 227.085 54.5C227.085 53.156 227.529 52.034 228.417 51.134C229.305 50.222 230.445 49.766 231.837 49.766C233.157 49.766 234.237 50.228 235.077 51.152C235.929 52.076 236.355 53.198 236.355 54.518C236.355 54.722 236.331 54.992 236.283 55.328H229.119ZM229.101 53.744H234.393C234.261 53.012 233.955 52.46 233.475 52.088C233.007 51.716 232.455 51.53 231.819 51.53C231.099 51.53 230.499 51.728 230.019 52.124C229.539 52.52 229.233 53.06 229.101 53.744Z" fill="white"/>
</svg>
